<svg width="800" height="800" viewBox="0 0 800 800" fill="none" xmlns="http://www.w3.org/2000/svg">
<path d="M531.25 412.5V662.5C531.25 676.25 520 687.5 506.25 687.5H461.25" stroke="white" stroke-width="25"/>
<path d="M80 12.5H506.25C520 12.5 531.25 23.75 531.25 37.5V337.5" stroke="white" stroke-width="25"/>
<path fill-rule="evenodd" clip-rule="evenodd" d="M56.25 37.5C56.25 23.75 67.5 12.5 81.25 12.5L432.5 112.5C446.25 112.5 457.5 123.75 457.5 137.5V762.5C457.5 776.25 446.25 787.5 432.5 787.5L81.25 687.5C67.5 687.5 56.25 676.25 56.25 662.5V37.5Z" stroke="white" stroke-width="25"/>
<path d="M375 462.5C385.355 462.5 393.75 454.105 393.75 443.75C393.75 433.395 385.355 425 375 425C364.645 425 356.25 433.395 356.25 443.75C356.25 454.105 364.645 462.5 375 462.5Z" stroke="white" stroke-width="25"/>
<path d="M658.75 433.75V480C658.75 483.75 656.25 487.5 651.25 487.5L505 390C501.25 387.5 497.5 386.25 497.5 382.5V368.75C497.5 366.25 500 363.75 505 361.25L651.25 262.5C655 262.5 657.5 266.25 657.5 270V312.5" stroke="white" stroke-width="25"/>
<path d="M635 325H756.25" stroke="white" stroke-width="25"/>
<path d="M635 425H756.25" stroke="white" stroke-width="25"/>
</svg>
