<svg width="54" height="32" viewBox="0 0 54 32" fill="none" xmlns="http://www.w3.org/2000/svg">
<path d="M54 -3H0V32H54V-3Z" fill="white"/>
<path d="M38 5L28.5 12.9167L23.5 8.75L16 15" stroke="url(#paint0_linear_0_1)" stroke-width="2" stroke-linecap="round" stroke-linejoin="round"/>
<path d="M32 5H38V10" stroke="url(#paint1_linear_0_1)" stroke-width="2" stroke-linecap="round" stroke-linejoin="round"/>
<path d="M0.783554 28.0714V20.7987H6.74094V22.2263H2.89293V23.7178H6.36168V25.1488H2.89293V28.0714H0.783554ZM9.91246 20.7987V28.0714H7.80309V20.7987H9.91246ZM18.6642 20.7987V28.0714H16.8745L13.4015 23.874H13.3461V28.0714H11.2367V20.7987H13.052L16.4867 24.989H16.5591V20.7987H18.6642ZM21.8784 28.0714H19.6113L22.5559 20.7987H25.3642L28.3088 28.0714H26.0417L23.992 22.6311H23.9238L21.8784 28.0714ZM21.5758 25.2092H26.3145V26.5444H21.5758V25.2092ZM36.676 20.7987V28.0714H34.8862L31.4132 23.874H31.3578V28.0714H29.2484V20.7987H31.0637L34.4984 24.989H34.5708V20.7987H36.676ZM45.9242 23.4337H43.7935C43.7651 23.2513 43.7069 23.0868 43.6188 22.94C43.5307 22.7933 43.4142 22.6678 43.2694 22.5636C43.1245 22.4594 42.9526 22.3802 42.7537 22.3257C42.5577 22.2688 42.3404 22.2404 42.1017 22.2404C41.6784 22.2404 41.3134 22.3268 41.0066 22.4997C40.7026 22.6725 40.4682 22.9223 40.3034 23.249C40.1415 23.5757 40.0605 23.971 40.0605 24.4351C40.0605 24.918 40.1429 25.3228 40.3077 25.6496C40.4753 25.9739 40.7097 26.2189 41.0108 26.3847C41.3148 26.548 41.6742 26.6297 42.089 26.6297C42.3219 26.6297 42.5336 26.6048 42.7239 26.5551C42.9171 26.5053 43.0861 26.4332 43.231 26.3385C43.3787 26.2414 43.4995 26.1243 43.5932 25.9869C43.6898 25.8473 43.7566 25.6898 43.7935 25.5146L45.9242 25.5253C45.8873 25.8473 45.775 26.1644 45.5875 26.4769C45.4029 26.7894 45.1486 27.0748 44.8248 27.3328C44.5009 27.5885 44.106 27.7921 43.6401 27.9436C43.177 28.0951 42.6458 28.1708 42.0463 28.1708C41.2566 28.1708 40.5492 28.0264 39.9242 27.7376C39.302 27.4464 38.8105 27.0227 38.4498 26.4663C38.089 25.9099 37.9086 25.2328 37.9086 24.4351C37.9086 23.6348 38.0918 22.9566 38.4583 22.4003C38.8248 21.8439 39.3205 21.4213 39.9455 21.1325C40.5705 20.8437 41.2708 20.6993 42.0463 20.6993C42.5748 20.6993 43.0634 20.7608 43.5123 20.8839C43.9611 21.0047 44.356 21.1823 44.6969 21.4166C45.0378 21.6486 45.3148 21.9338 45.5279 22.2724C45.7409 22.6109 45.873 22.998 45.9242 23.4337ZM47.1312 28.0714V20.7987H53.2164V22.2263H49.2406V23.7178H52.9054V25.1488H49.2406V26.6438H53.2164V28.0714H47.1312Z" fill="url(#paint2_linear_0_1)"/>
<defs>
<linearGradient id="paint0_linear_0_1" x1="27" y1="5" x2="27" y2="15" gradientUnits="userSpaceOnUse">
<stop stop-color="#E65C00"/>
<stop offset="1" stop-color="#F9D423"/>
</linearGradient>
<linearGradient id="paint1_linear_0_1" x1="35" y1="5" x2="35" y2="10" gradientUnits="userSpaceOnUse">
<stop stop-color="#E65C00"/>
<stop offset="1" stop-color="#F9D423"/>
</linearGradient>
<linearGradient id="paint2_linear_0_1" x1="-3.60478e-06" y1="14.7381" x2="-3.60478e-06" y2="34.7381" gradientUnits="userSpaceOnUse">
<stop stop-color="#E65C00"/>
<stop offset="1" stop-color="#F9D423"/>
</linearGradient>
</defs>
</svg>
